<?xml version="1.0" encoding="UTF-8"?>
<svg width="32px" height="32px" viewBox="0 0 32 32" version="1.1" xmlns="http://www.w3.org/2000/svg">
    <title>ProFit-AI</title>
    <g stroke="none" stroke-width="1" fill="none" fill-rule="evenodd">
        <circle fill="#4361EE" cx="16" cy="16" r="16"/>
        <path d="M8,12 L24,12 C25.1045695,12 26,12.8954305 26,14 L26,24 C26,25.1045695 25.1045695,26 24,26 L8,26 C6.8954305,26 6,25.1045695 6,24 L6,14 C6,12.8954305 6.8954305,12 8,12 Z M16,14 C13.790861,14 12,15.790861 12,18 C12,20.209139 13.790861,22 16,22 C18.209139,22 20,20.209139 20,18 C20,15.790861 18.209139,14 16,14 Z" fill="#FFFFFF"/>
        <path d="M16,6 C17.1045695,6 18,6.8954305 18,8 L18,10 C18,11.1045695 17.1045695,12 16,12 C14.8954305,12 14,11.1045695 14,10 L14,8 C14,6.8954305 14.8954305,6 16,6 Z" fill="#FFFFFF"/>
    </g>
</svg>
