<?xml version="1.0" encoding="UTF-8"?>
<svg width="512" height="512" viewBox="0 0 512 512" fill="none" xmlns="http://www.w3.org/2000/svg">
    <!-- Background Circle -->
    <circle cx="256" cy="256" r="248" fill="url(#gradient)" stroke="#ffffff" stroke-width="16"/>
    
    <!-- Dumbbell Icon -->
    <g transform="translate(128, 192) scale(1.2)">
        <path d="M25 165h30v-60H25c-13.8 0-25 11.2-25 25v10c0 13.8 11.2 25 25 25zm180-60h-30v60h30c13.8 0 25-11.2 25-25v-10c0-13.8-11.2-25-25-25zm-150 0H95v60H55v-60zm90 0h-30v60h30v-60z" fill="#ffffff"/>
    </g>
    
    <!-- Gradient Definition -->
    <defs>
        <linearGradient id="gradient" x1="0" y1="0" x2="512" y2="512" gradientUnits="userSpaceOnUse">
            <stop offset="0%" style="stop-color:#6a11cb"/>
            <stop offset="100%" style="stop-color:#2575fc"/>
        </linearGradient>
    </defs>
</svg>
